<svg xmlns="http://www.w3.org/2000/svg" viewBox="0 0 338.6 100"><rect x="4" y="0" width="100" height="100" rx="14" fill="#4C030F"/><g transform="translate(54.0,50.0) scale(0.03519,-0.03519) translate(-685.12,-701.98)"><path d="M439.799560546875 749.1998291015625H762.2799072265625Q824.8399047851562 749.1998291015625 850.0798950195312 773.5398254394531Q875.3198852539062 797.8798217773438 887.079833984375 868.1198120117188Q893.1198120117188 891.4397583007812 904.7997741699219 902.8597412109375Q916.479736328125 914.2797241210938 935.3197021484375 915.5997314453125Q972.359619140625 917.7997436523438 982.7196044921875 873.8798217773438L1058.6395874023438 578.8799438476562Q1064.9995727539062 553.8800048828125 1058.8595886230469 539.2600402832031Q1052.7196044921875 524.6400756835938 1031.6396484375 517.7200927734375Q1012.9996948242188 511.68011474609375 996.2597351074219 517.5801086425781Q979.519775390625 523.4801025390625 967.7998046875 541.320068359375Q941.079833984375 588.320068359375 918.0398559570312 612.6000671386719Q894.9998779296875 636.8800659179688 866.39990234375 645.6600646972656Q837.7999267578125 654.4400634765625 794.1599731445312 654.4400634765625H439.799560546875ZM105.60009765625 1356.4401245117188Q105.60009765625 1376.8800659179688 119.72006225585938 1388.4400329589844Q133.84002685546875 1400 163.63995361328125 1400H923.9599609375Q959.8399047851562 1400 982.2998657226562 1410.3200073242188Q1004.7598266601562 1420.6400146484375 1024.8197937011719 1430.7400207519531Q1044.8797607421875 1440.8400268554688 1071.0797119140625 1440.8400268554688Q1100.11962890625 1440.8400268554688 1114.8595886230469 1424.6400756835938Q1129.5995483398438 1408.4401245117188 1140.4395141601562 1371.3602294921875L1219.719482421875 1089.4402465820312Q1227.199462890625 1065.4403076171875 1219.7794799804688 1049.4203491210938Q1212.3594970703125 1033.400390625 1190.5995483398438 1025.92041015625Q1166.599609375 1019.200439453125 1147.4596557617188 1028.180419921875Q1128.3197021484375 1037.160400390625 1116.0397338867188 1060.9203491210938Q1078.6397705078125 1139.2803344726562 1046.6798095703125 1186.7603149414062Q1014.7198486328125 1234.2402954101562 982.0998840332031 1259.8802795410156Q949.4799194335938 1285.520263671875 911.3199462890625 1294.5402526855469Q873.1599731445312 1303.5602416992188 822.7999877929688 1303.5602416992188H550.3192138671875V192.67962646484375Q550.3192138671875 144.5596923828125 578.1192016601562 120.49972534179688Q605.919189453125 96.43975830078125 662.3591918945312 96.43975830078125H852.3599853515625Q918.8799438476562 96.43975830078125 967.8598937988281 118.45974731445312Q1016.83984375 140.479736328125 1061.6997985839844 203.99972534179688Q1106.5597534179688 267.51971435546875 1160.8397216796875 391.959716796875Q1170.9996948242188 414.71966552734375 1187.4196472167969 422.4196472167969Q1203.839599609375 430.11962890625 1224.279541015625 426.7596435546875Q1248.1594848632812 422.83966064453125 1258.3794555664062 406.25970458984375Q1268.5994262695312 389.67974853515625 1262.1194458007812 361.7998046875L1176.9194946289062 33.47979736328125Q1166.6395263671875 -2.4801025390625 1150.4595642089844 -19.6800537109375Q1134.2796020507812 -36.8800048828125 1103.5596923828125 -36.8800048828125Q1080.479736328125 -36.8800048828125 1060.759765625 -27.660003662109375Q1041.039794921875 -18.44000244140625 1017.3598327636719 -9.220001220703125Q993.6798706054688 0 960.1199340820312 0H163.63995361328125Q133.84002685546875 0 119.72006225585938 12.059967041015625Q105.60009765625 24.11993408203125 105.60009765625 43.55987548828125Q105.60009765625 79.83978271484375 146.9200439453125 93.23974609375L206.16015625 105.91973876953125Q230.84014892578125 111.8397216796875 243.56015014648438 125.79971313476562Q256.2801513671875 139.75970458984375 256.2801513671875 162.11968994140625V1237.8803100585938Q256.2801513671875 1260.2402954101562 243.56015014648438 1274.2002868652344Q230.84014892578125 1288.1602783203125 206.16015625 1294.0802612304688L146.9200439453125 1306.76025390625Q105.60009765625 1320.1602172851562 105.60009765625 1356.4401245117188Z" fill="#F4EEE4"/></g><g transform="translate(118.41,74.00) scale(0.03429,-0.03429)" fill="#4C030F"><path transform="translate(0.0,0)" d="M1344.0390625 920.0000610351562Q1344.0390625 823.1600341796875 1301.0390625 745.1200256347656Q1258.0390625 667.0800170898438 1178.9190673828125 614.5800170898438Q1099.799072265625 562.0800170898438 990.8790893554688 542.0800170898438Q951.9591674804688 535.1600341796875 918.6392211914062 527.6200561523438Q885.3192749023438 520.080078125 851.2793273925781 514.3800964355469Q817.2393798828125 508.68011474609375 776.199462890625 508.68011474609375Q713.3194580078125 508.68011474609375 656.0394287109375 517.4001159667969Q598.7593994140625 526.1201171875 551.7593688964844 542.5601196289062Q504.75933837890625 559.0001220703125 469.3193359375 582.2001342773438L475.15936279296875 668.7999267578125Q504.359375 648.919921875 543.4794311523438 634.659912109375Q582.5994873046875 620.39990234375 629.2595520019531 612.5798950195312Q675.9196166992188 604.7598876953125 726.6396484375 604.7598876953125Q873.6798095703125 604.7598876953125 956.6199035644531 683.9599609375Q1039.5599975585938 763.1600341796875 1039.5599975585938 916.0401000976562Q1039.5599975585938 1030.7601318359375 990.7599487304688 1119.8801574707031Q941.9598999023438 1209.0001831054688 852.3797912597656 1259.9201965332031Q762.7996826171875 1310.8402099609375 642.1195068359375 1310.8402099609375H549.439208984375V162.11968994140625Q549.439208984375 139.75970458984375 560.4792175292969 125.85971069335938Q571.5192260742188 111.959716796875 593.5192260742188 105.91973876953125L666.5194702148438 93.23974609375Q690.3594360351562 83.95977783203125 699.0994262695312 73.01980590820312Q707.8394165039062 62.079833984375 707.8394165039062 43.55987548828125Q707.8394165039062 0 649.799560546875 0H162.75994873046875Q132.96002197265625 0 118.84005737304688 12.059967041015625Q104.7200927734375 24.11993408203125 104.7200927734375 43.55987548828125Q104.7200927734375 79.83978271484375 146.0400390625 93.23974609375L205.2801513671875 105.91973876953125Q229.96014404296875 112.8397216796875 242.68014526367188 126.29971313476562Q255.400146484375 139.75970458984375 255.400146484375 162.11968994140625V1237.8803100585938Q255.400146484375 1260.2402954101562 242.68014526367188 1274.2002868652344Q229.96014404296875 1288.1602783203125 205.2801513671875 1294.0802612304688L146.0400390625 1306.76025390625Q104.7200927734375 1320.1602172851562 104.7200927734375 1356.4401245117188Q104.7200927734375 1376.8800659179688 118.84005737304688 1388.4400329589844Q132.96002197265625 1400 162.75994873046875 1400H651.7594604492188Q874.9993286132812 1400 1029.21923828125 1338.4400024414062Q1183.4391479492188 1276.8800048828125 1263.7391052246094 1168.5800170898438Q1344.0390625 1060.280029296875 1344.0390625 920.0000610351562ZM777.9197387695312 547.7200317382812 1067.078857421875 581.43994140625 1329.2390747070312 163.67974853515625Q1347.6790771484375 134.999755859375 1367.6791076660156 118.83975219726562Q1387.6791381835938 102.67974853515625 1421.67919921875 93.43975830078125Q1452.71923828125 84.07977294921875 1463.9992370605469 73.07980346679688Q1475.2792358398438 62.079833984375 1475.2792358398438 43.55987548828125Q1475.2792358398438 24.11993408203125 1460.7192687988281 12.059967041015625Q1446.1593017578125 0 1415.9193725585938 0H996.6798095703125Q939.9999389648438 0 939.9999389648438 43.55987548828125Q939.9999389648438 56.03985595703125 946.93994140625 65.23983764648438Q953.8799438476562 74.4398193359375 968.43994140625 80.039794921875L1000.3600463867188 87.71978759765625Q1021.8800659179688 96.8797607421875 1024.6000671386719 110.759765625Q1027.320068359375 124.6397705078125 1013.0000610351562 150.6397705078125Z"/><path transform="translate(1589.0,0)" d="M826.7594604492188 447.840087890625 596.3202514648438 407.08013916015625 168.6800537109375 1234.7203369140625Q152.2000732421875 1267.2402954101562 138.86007690429688 1280.1002807617188Q125.52008056640625 1292.9602661132812 102.9600830078125 1299.3202514648438L71.56005859375 1309.5602416992188Q49.6800537109375 1317.3602294921875 40.4400634765625 1328.9801940917969Q31.2000732421875 1340.6001586914062 31.2000732421875 1356.4401245117188Q31.2000732421875 1376.8800659179688 45.98004150390625 1388.4400329589844Q60.760009765625 1400 90.5599365234375 1400H561.3193969726562Q591.559326171875 1400 607.4393005371094 1388.4400329589844Q623.3192749023438 1376.8800659179688 623.3192749023438 1356.4401245117188Q623.3192749023438 1319.480224609375 574.9592895507812 1306.8802490234375L524.63916015625 1297.4402465820312Q488.4791259765625 1288.6402587890625 480.6191101074219 1272.4402770996094Q472.75909423828125 1256.2402954101562 488.55908203125 1221.600341796875L821.199462890625 534.8799438476562L722.7997436523438 483.36004638671875L1071.6000366210938 1180.88037109375Q1093.4800415039062 1224.2403564453125 1083.2000427246094 1254.7003173828125Q1072.9200439453125 1285.1602783203125 1024.800048828125 1298.5602416992188L970.9998779296875 1310.000244140625Q954.8798828125 1315.3602294921875 944.4198913574219 1326.6401977539062Q933.9598999023438 1337.920166015625 933.9598999023438 1356.4401245117188Q933.9598999023438 1376.8800659179688 948.7398681640625 1388.4400329589844Q963.5198364257812 1400 993.3197631835938 1400H1297.2798461914062Q1327.519775390625 1400 1342.23974609375 1388.4400329589844Q1356.959716796875 1376.8800659179688 1356.959716796875 1356.4401245117188Q1356.959716796875 1339.4801635742188 1348.4997253417969 1329.3201904296875Q1340.0397338867188 1319.1602172851562 1316.8397216796875 1310.240234375L1301.7197265625 1303.8802490234375Q1281.3997192382812 1296.520263671875 1264.5597229003906 1283.3202819824219Q1247.7197265625 1270.1203002929688 1230.4197387695312 1244.1203308105469Q1213.1197509765625 1218.120361328125 1189.6397705078125 1170.8004150390625ZM556.84033203125 510.51995849609375 851.87939453125 511.51995849609375V162.11968994140625Q851.87939453125 139.75970458984375 864.37939453125 125.79971313476562Q876.87939453125 111.8397216796875 900.9993896484375 105.91973876953125L960.239501953125 93.23974609375Q1001.5594482421875 79.83978271484375 1001.5594482421875 43.55987548828125Q1001.5594482421875 24.11993408203125 987.6594848632812 12.059967041015625Q973.759521484375 0 943.5195922851562 0H465.20013427734375Q435.40020751953125 0 421.500244140625 12.059967041015625Q407.60028076171875 24.11993408203125 407.60028076171875 43.55987548828125Q407.60028076171875 79.83978271484375 448.480224609375 93.23974609375L508.16033935546875 105.91973876953125Q532.4003295898438 111.8397216796875 544.6203308105469 125.79971313476562Q556.84033203125 139.75970458984375 556.84033203125 162.11968994140625Z"/><path transform="translate(3066.0,0)" d="M540.719970703125 43.55987548828125Q540.719970703125 24.11993408203125 526.2200012207031 12.3399658203125Q511.72003173828125 0.55999755859375 481.4801025390625 0H147.3599853515625Q118.12005615234375 0.55999755859375 102.840087890625 12.3399658203125Q87.56011962890625 24.11993408203125 87.56011962890625 43.55987548828125Q87.56011962890625 76.95977783203125 130.9200439453125 94.03973388671875L180.2001953125 107.999755859375Q226.64019775390625 124.5997314453125 243.00018310546875 145.0596923828125Q259.36016845703125 165.5196533203125 259.36016845703125 210.75958251953125V1092.4403076171875Q259.36016845703125 1123.7202758789062 251.98016357421875 1144.2202758789062Q244.60015869140625 1164.7202758789062 214.64013671875 1199.9202880859375L130.16009521484375 1305.80029296875Q113.880126953125 1326.5602416992188 108.0201416015625 1338.1202087402344Q102.16015625 1349.68017578125 102.16015625 1362.0801391601562Q102.16015625 1380.2000732421875 115.40011596679688 1390.1000366210938Q128.64007568359375 1400 150.20001220703125 1400H368.4393310546875Q397.31927490234375 1400 416.5992431640625 1390.0800170898438Q435.87921142578125 1380.1600341796875 455.59918212890625 1351.9600830078125L1245.47998046875 310.2393798828125L1199.6800537109375 200.03973388671875V1189.2404174804688Q1199.6800537109375 1232.9203491210938 1184.2200622558594 1254.3203125Q1168.7600708007812 1275.7202758789062 1120.5200805664062 1292.000244140625L1070.919921875 1305.9602661132812Q1027.5599975585938 1324.72021484375 1027.5599975585938 1356.4401245117188Q1027.5599975585938 1376.8800659179688 1042.3399658203125 1388.4400329589844Q1057.1199340820312 1400 1086.7998657226562 1400H1420.9199829101562Q1451.159912109375 1400 1465.9398803710938 1388.4400329589844Q1480.7198486328125 1376.8800659179688 1480.7198486328125 1356.4401245117188Q1480.7198486328125 1323.6002197265625 1437.3599243164062 1305.9602661132812L1388.0797729492188 1292.000244140625Q1342.6397705078125 1276.4002685546875 1325.77978515625 1255.7203063964844Q1308.9197998046875 1235.0403442382812 1308.9197998046875 1189.2404174804688V277.759521484375Q1308.9197998046875 246.23956298828125 1314.7597961425781 224.31961059570312Q1320.5997924804688 202.399658203125 1335.0797729492188 183.23968505859375L1396.6397705078125 101.51971435546875Q1414.7197265625 79.07977294921875 1419.0597229003906 66.63980102539062Q1423.3997192382812 54.1998291015625 1423.3997192382812 40.91986083984375Q1423.3997192382812 22.7999267578125 1410.3797607421875 11.39996337890625Q1397.3598022460938 0 1372.599853515625 0H1118.7606201171875Q1073.6807250976562 0 1073.6807250976562 37.0399169921875Q1073.6807250976562 53.2799072265625 1067.500732421875 66.97988891601562Q1061.3207397460938 80.67987060546875 1032.7207641601562 118.31982421875L278.88018798828125 1116.9602661132812L369.59991455078125 1180.64013671875V210.1995849609375Q369.59991455078125 167.6396484375 384.83990478515625 146.45968627929688Q400.07989501953125 125.27972412109375 448.7598876953125 107.999755859375L498.36004638671875 94.03973388671875Q540.719970703125 76.3997802734375 540.719970703125 43.55987548828125Z"/><path transform="translate(4715.0,0)" d="M105.60009765625 43.55987548828125Q105.60009765625 79.83978271484375 146.9200439453125 93.23974609375L206.16015625 105.91973876953125Q230.84014892578125 112.8397216796875 243.56015014648438 126.29971313476562Q256.2801513671875 139.75970458984375 256.2801513671875 162.11968994140625V1237.8803100585938Q256.2801513671875 1260.2402954101562 243.56015014648438 1273.7002868652344Q230.84014892578125 1287.1602783203125 206.16015625 1294.0802612304688L146.9200439453125 1306.76025390625Q105.60009765625 1320.1602172851562 105.60009765625 1356.4401245117188Q105.60009765625 1376.8800659179688 119.72006225585938 1388.4400329589844Q133.84002685546875 1400 163.63995361328125 1400H685.9594116210938Q872.159423828125 1400 1024.1994323730469 1345.4400024414062Q1176.2394409179688 1290.8800048828125 1285.6194458007812 1191.4800109863281Q1394.9994506835938 1092.0800170898438 1453.939453125 956.5600280761719Q1512.8794555664062 821.0400390625 1512.8794555664062 657.56005859375Q1512.8794555664062 467.9200439453125 1424.9794616699219 319.0000305175781Q1337.0794677734375 170.08001708984375 1172.6594543457031 85.04000854492188Q1008.2394409179688 0 776.6793823242188 0H163.63995361328125Q133.84002685546875 0 119.72006225585938 12.059967041015625Q105.60009765625 24.11993408203125 105.60009765625 43.55987548828125ZM750.9195556640625 95.999755859375Q889.1598510742188 95.999755859375 991.8200378417969 159.21981811523438Q1094.480224609375 222.43988037109375 1151.0403137207031 348.4199523925781Q1207.6004028320312 474.4000244140625 1207.6004028320312 663.56005859375Q1207.6004028320312 811.080078125 1169.2203369140625 929.0801086425781Q1130.8402709960938 1047.0801391601562 1058.2201538085938 1131.0801696777344Q985.6000366210938 1215.0802001953125 883.119873046875 1259.5402221679688Q780.6397094726562 1304.000244140625 652.4395141601562 1304.000244140625H550.3192138671875V186.07965087890625Q550.3192138671875 139.63970947265625 577.3392028808594 117.81973266601562Q604.3591918945312 95.999755859375 658.3591918945312 95.999755859375Z"/></g></svg>