<svg xmlns="http://www.w3.org/2000/svg" viewBox="0 0 100 100"><rect width="100" height="100" rx="14" fill="#F4EEE4"/><g transform="translate(50.0,50.0) scale(0.03519,-0.03519) translate(-685.12,-701.98)"><path d="M439.799560546875 749.1998291015625H762.2799072265625Q824.8399047851562 749.1998291015625 850.0798950195312 773.5398254394531Q875.3198852539062 797.8798217773438 887.079833984375 868.1198120117188Q893.1198120117188 891.4397583007812 904.7997741699219 902.8597412109375Q916.479736328125 914.2797241210938 935.3197021484375 915.5997314453125Q972.359619140625 917.7997436523438 982.7196044921875 873.8798217773438L1058.6395874023438 578.8799438476562Q1064.9995727539062 553.8800048828125 1058.8595886230469 539.2600402832031Q1052.7196044921875 524.6400756835938 1031.6396484375 517.7200927734375Q1012.9996948242188 511.68011474609375 996.2597351074219 517.5801086425781Q979.519775390625 523.4801025390625 967.7998046875 541.320068359375Q941.079833984375 588.320068359375 918.0398559570312 612.6000671386719Q894.9998779296875 636.8800659179688 866.39990234375 645.6600646972656Q837.7999267578125 654.4400634765625 794.1599731445312 654.4400634765625H439.799560546875ZM105.60009765625 1356.4401245117188Q105.60009765625 1376.8800659179688 119.72006225585938 1388.4400329589844Q133.84002685546875 1400 163.63995361328125 1400H923.9599609375Q959.8399047851562 1400 982.2998657226562 1410.3200073242188Q1004.7598266601562 1420.6400146484375 1024.8197937011719 1430.7400207519531Q1044.8797607421875 1440.8400268554688 1071.0797119140625 1440.8400268554688Q1100.11962890625 1440.8400268554688 1114.8595886230469 1424.6400756835938Q1129.5995483398438 1408.4401245117188 1140.4395141601562 1371.3602294921875L1219.719482421875 1089.4402465820312Q1227.199462890625 1065.4403076171875 1219.7794799804688 1049.4203491210938Q1212.3594970703125 1033.400390625 1190.5995483398438 1025.92041015625Q1166.599609375 1019.200439453125 1147.4596557617188 1028.180419921875Q1128.3197021484375 1037.160400390625 1116.0397338867188 1060.9203491210938Q1078.6397705078125 1139.2803344726562 1046.6798095703125 1186.7603149414062Q1014.7198486328125 1234.2402954101562 982.0998840332031 1259.8802795410156Q949.4799194335938 1285.520263671875 911.3199462890625 1294.5402526855469Q873.1599731445312 1303.5602416992188 822.7999877929688 1303.5602416992188H550.3192138671875V192.67962646484375Q550.3192138671875 144.5596923828125 578.1192016601562 120.49972534179688Q605.919189453125 96.43975830078125 662.3591918945312 96.43975830078125H852.3599853515625Q918.8799438476562 96.43975830078125 967.8598937988281 118.45974731445312Q1016.83984375 140.479736328125 1061.6997985839844 203.99972534179688Q1106.5597534179688 267.51971435546875 1160.8397216796875 391.959716796875Q1170.9996948242188 414.71966552734375 1187.4196472167969 422.4196472167969Q1203.839599609375 430.11962890625 1224.279541015625 426.7596435546875Q1248.1594848632812 422.83966064453125 1258.3794555664062 406.25970458984375Q1268.5994262695312 389.67974853515625 1262.1194458007812 361.7998046875L1176.9194946289062 33.47979736328125Q1166.6395263671875 -2.4801025390625 1150.4595642089844 -19.6800537109375Q1134.2796020507812 -36.8800048828125 1103.5596923828125 -36.8800048828125Q1080.479736328125 -36.8800048828125 1060.759765625 -27.660003662109375Q1041.039794921875 -18.44000244140625 1017.3598327636719 -9.220001220703125Q993.6798706054688 0 960.1199340820312 0H163.63995361328125Q133.84002685546875 0 119.72006225585938 12.059967041015625Q105.60009765625 24.11993408203125 105.60009765625 43.55987548828125Q105.60009765625 79.83978271484375 146.9200439453125 93.23974609375L206.16015625 105.91973876953125Q230.84014892578125 111.8397216796875 243.56015014648438 125.79971313476562Q256.2801513671875 139.75970458984375 256.2801513671875 162.11968994140625V1237.8803100585938Q256.2801513671875 1260.2402954101562 243.56015014648438 1274.2002868652344Q230.84014892578125 1288.1602783203125 206.16015625 1294.0802612304688L146.9200439453125 1306.76025390625Q105.60009765625 1320.1602172851562 105.60009765625 1356.4401245117188Z" fill="#4C030F"/></g></svg>